<svg width="22" height="28" viewBox="0 0 22 28" fill="none" xmlns="http://www.w3.org/2000/svg">
<g clip-path="url(#clip0_5164_5580)">
<path d="M11 0.5C15.3074 0.5 18.8117 3.95553 18.8115 8.20312V10.626C20.632 12.4381 21.7352 14.7768 21.958 17.29L21.9912 17.7949C22.1377 21.3409 20.5145 24.7399 17.6484 26.8867C17.1208 27.2819 16.4695 27.5 15.8154 27.5H6.18555C5.53362 27.5 4.88753 27.2859 4.36816 26.8984C3.04138 25.908 1.94271 24.6138 1.19043 23.1562C0.400773 21.6262 0 19.9747 0 18.2471C1.58784e-05 15.3524 1.1297 12.6543 3.18848 10.6104V8.20312C3.18869 3.9556 6.69272 0.500116 11 0.5ZM11 2.13574C7.60746 2.13586 4.84766 4.85761 4.84766 8.20312V10.9551C4.84753 11.1804 4.75381 11.3952 4.58789 11.5498C2.69956 13.3092 1.6592 15.6872 1.65918 18.2471C1.65918 21.1564 3.01231 23.834 5.37012 25.5938C5.60305 25.7677 5.89266 25.8633 6.18555 25.8633H15.8154C16.0721 25.8633 16.3301 25.7883 16.5518 25.6484L16.6445 25.584C19.0787 23.7604 20.4572 20.8733 20.333 17.8613C20.2339 15.4678 19.1969 13.2307 17.4121 11.5635C17.247 11.4088 17.1523 11.1933 17.1523 10.9688V8.20312C17.1523 4.85754 14.3926 2.13574 11 2.13574Z" fill="#151515"/>
<path d="M11 0.5C15.3074 0.5 18.8117 3.95553 18.8115 8.20312V10.626C20.632 12.4381 21.7352 14.7768 21.958 17.29L21.9912 17.7949C22.1377 21.3409 20.5145 24.7399 17.6484 26.8867C17.1208 27.2819 16.4695 27.5 15.8154 27.5H6.18555C5.53362 27.5 4.88753 27.2859 4.36816 26.8984C3.04138 25.908 1.94271 24.6138 1.19043 23.1562C0.400773 21.6262 0 19.9747 0 18.2471C1.58784e-05 15.3524 1.1297 12.6543 3.18848 10.6104V8.20312C3.18869 3.9556 6.69272 0.500116 11 0.5ZM11 2.13574C7.60746 2.13586 4.84766 4.85761 4.84766 8.20312V10.9551C4.84753 11.1804 4.75381 11.3952 4.58789 11.5498C2.69956 13.3092 1.6592 15.6872 1.65918 18.2471C1.65918 21.1564 3.01231 23.834 5.37012 25.5938C5.60305 25.7677 5.89266 25.8633 6.18555 25.8633H15.8154C16.0721 25.8633 16.3301 25.7883 16.5518 25.6484L16.6445 25.584C19.0787 23.7604 20.4572 20.8733 20.333 17.8613C20.2339 15.4678 19.1969 13.2307 17.4121 11.5635C17.247 11.4088 17.1523 11.1933 17.1523 10.9688V8.20312C17.1523 4.85754 14.3926 2.13574 11 2.13574Z" stroke="black"/>
<path d="M11.001 3.46484C13.6508 3.46488 15.8066 5.59105 15.8066 8.2041V9.01953C15.8066 9.29421 15.6661 9.55088 15.4336 9.70215C15.2958 9.7913 15.1365 9.83691 14.9766 9.83691C14.8663 9.83688 14.755 9.81557 14.6504 9.77148C13.6314 9.34124 12.5541 9.0975 11.4473 9.04688C10.0248 8.98216 8.64521 9.22412 7.34961 9.76758C7.09322 9.87465 6.79943 9.84755 6.56738 9.69629C6.33504 9.54506 6.19545 9.28918 6.19531 9.01465V8.2041C6.19531 5.67265 8.21836 3.59789 10.7539 3.4707L11.001 3.46484ZM11.001 5.10156C9.38958 5.10156 8.05744 6.30191 7.87598 7.84375C8.88449 7.54814 9.92785 7.39944 10.9941 7.39941C11.1701 7.39941 11.3466 7.40398 11.5234 7.41211V7.41309C12.4109 7.45337 13.2825 7.59907 14.127 7.84766C13.9466 6.30432 12.6125 5.1016 11.001 5.10156Z" fill="#151515"/>
<path d="M11.001 3.46484C13.6508 3.46488 15.8066 5.59105 15.8066 8.2041V9.01953C15.8066 9.29421 15.6661 9.55088 15.4336 9.70215C15.2958 9.7913 15.1365 9.83691 14.9766 9.83691C14.8663 9.83688 14.755 9.81557 14.6504 9.77148C13.6314 9.34124 12.5541 9.0975 11.4473 9.04688C10.0248 8.98216 8.64521 9.22412 7.34961 9.76758C7.09322 9.87465 6.79943 9.84755 6.56738 9.69629C6.33504 9.54506 6.19545 9.28918 6.19531 9.01465V8.2041C6.19531 5.67265 8.21836 3.59789 10.7539 3.4707L11.001 3.46484ZM11.001 5.10156C9.38958 5.10156 8.05744 6.30191 7.87598 7.84375C8.88449 7.54814 9.92785 7.39944 10.9941 7.39941C11.1701 7.39941 11.3466 7.40398 11.5234 7.41211V7.41309C12.4109 7.45337 13.2825 7.59907 14.127 7.84766C13.9466 6.30432 12.6125 5.1016 11.001 5.10156Z" stroke="black"/>
</g>
<defs>
<clipPath id="clip0_5164_5580">
<rect width="22" height="27" fill="white" transform="translate(0 0.5)"/>
</clipPath>
</defs>
</svg>
