<svg width="25" height="24" viewBox="0 0 25 24" fill="none" xmlns="http://www.w3.org/2000/svg">
<path d="M1.62536 11.075C1.96331 11.075 2.23688 11.3521 2.23688 11.6944V20.4306C2.23688 21.0255 2.67943 21.4981 3.25072 21.5878V23.2095C3.25072 23.6414 3.60477 24 4.03122 24H5.13357C5.56002 24 5.91406 23.6414 5.91406 23.2095V21.6204V9.77114C5.91406 9.24143 5.71291 8.74432 5.34277 8.36944C4.97264 7.99457 4.48182 7.79083 3.96685 7.79083H1.62536C0.732215 7.79083 0 8.53243 0 9.43701C0 10.3416 0.724169 11.0832 1.62536 11.0832V11.075ZM5.13357 23.2014H4.03122V21.6122H5.13357V23.2014ZM1.62536 8.57318H3.9588C4.27261 8.57318 4.56228 8.69542 4.78757 8.9236C5.01287 9.15178 5.13357 9.44516 5.13357 9.76299V20.8217H3.40361C3.18636 20.8217 3.00933 20.6424 3.00933 20.4224V11.6863C3.00933 10.9121 2.38977 10.2764 1.61732 10.2764C1.15063 10.2764 0.772449 9.89338 0.772449 9.42071C0.772449 8.94805 1.15063 8.56503 1.61732 8.56503L1.62536 8.57318ZM6.69456 21.6122H18.2974V20.8217H6.69456V21.6122ZM4.20019 2.37148C4.20019 1.49949 4.90023 0.790493 5.76119 0.790493H19.2308C20.0917 0.790493 20.7918 1.49949 20.7918 2.37148V6.99219H21.5723V2.37148C21.5723 1.06757 20.5182 0 19.2308 0H5.76119C4.47377 0 3.4197 1.06757 3.4197 2.37148V6.99219H4.20019V2.37148ZM18.2974 13.5036H6.69456V14.2941H18.2974V13.5036ZM17.5169 12.1263H7.47506C7.30608 12.1263 7.14515 12.1426 7.00032 12.1752L6.62215 12.2567L6.79112 13.0309L7.1693 12.9494C7.25781 12.925 7.36241 12.9168 7.47506 12.9168H17.5169C17.6295 12.9168 17.7341 12.925 17.8227 12.9494L18.2008 13.0309L18.3698 12.2567L17.9916 12.1752C17.8468 12.1426 17.6859 12.1263 17.5169 12.1263ZM6.69456 16.2744H18.2974V15.4839H6.69456V16.2744ZM23.3666 7.78268H21.0331C20.5101 7.78268 20.0193 7.98642 19.6572 8.36129C19.2871 8.73616 19.0859 9.23328 19.0859 9.76299V23.2014C19.0859 23.6333 19.44 23.9919 19.8664 23.9919H20.9688C21.4033 23.9919 21.7493 23.6333 21.7493 23.2014V21.5796C22.3206 21.4981 22.7631 21.0255 22.7631 20.4224V11.6863C22.7631 11.344 23.0367 11.0669 23.3746 11.0669C24.2678 11.0669 25 10.3334 25 9.42071C25 8.50798 24.2758 7.77453 23.3746 7.77453L23.3666 7.78268ZM20.9607 23.2014H19.8584V21.6122H20.9607V23.2014ZM23.3666 10.2846C22.6022 10.2846 21.9746 10.9121 21.9746 11.6944V20.4306C21.9746 20.6506 21.7976 20.8299 21.5803 20.8299H19.8503V9.77114C19.8503 9.45331 19.971 9.15993 20.1963 8.93175C20.4216 8.70357 20.7113 8.58133 21.0251 8.58133H23.3666C23.8333 8.58133 24.2115 8.96435 24.2115 9.43701C24.2115 9.90968 23.8333 10.2927 23.3666 10.2927V10.2846Z" fill="black"/>
</svg>
