<svg width="26" height="24" viewBox="0 0 26 24" fill="none" xmlns="http://www.w3.org/2000/svg">
<path d="M23.9214 11.4564H9.7703V11.1925C9.7703 10.6729 9.34343 10.2492 8.81991 10.2492H7.67622C7.15271 10.2492 6.72584 10.6729 6.72584 11.1925V11.4564H5.92848V11.1925C5.92848 10.6729 5.50161 10.2492 4.97809 10.2492H3.83441C3.31089 10.2492 2.88402 10.6729 2.88402 11.1925V11.4564H2.60213C1.73228 11.4564 1.02352 12.1599 1.02352 13.0233V15.1739H25.4919V13.0233C25.4919 12.1599 24.7832 11.4564 23.9133 11.4564H23.9214ZM24.7107 23.2245H10.8173V15.9414H10.0361V17.5643H1.80477V15.9414H1.02352V24H25.4919V15.9414H24.7107V23.2245ZM10.0441 23.2245H1.81282V18.3398H10.0441V23.2245ZM17.1559 15.7815V22.6089H17.9372V15.7815H17.1559ZM15.6337 17.5243V19.499H16.4149V17.5243H15.6337ZM18.6782 17.5243V19.499H19.4594V17.5243H18.6782ZM3.00483 15.9813V16.7568H4.5029V15.9813H3.00483ZM5.17139 15.9813V16.7568H6.66946V15.9813H5.17139ZM7.346 15.9813V16.7568H8.84407V15.9813H7.346ZM10.5999 7.87475C11.4697 7.87475 12.1785 7.17122 12.1785 6.3078V5.53231C12.1785 5.37242 12.1463 5.21252 12.0979 5.06062V4.72485H11.9288C11.8885 4.66089 11.8724 4.59694 11.8241 4.54097L8.5058 0.567621C8.2078 0.207861 7.76482 0 7.28963 0H5.39691C4.92977 0 4.48679 0.207861 4.18073 0.567621L0.862436 4.54097C0.628867 4.82079 0.5 5.17255 0.5 5.54031V6.31578C0.5 7.17921 1.20876 7.88275 2.07861 7.88275H10.616L10.5999 7.87475ZM1.26514 6.31578V5.54031C1.26514 5.35643 1.32957 5.18054 1.45039 5.03664L4.76868 1.06329C4.92171 0.879409 5.13917 0.775484 5.3808 0.775484H7.27352C7.50709 0.775484 7.7326 0.879409 7.88563 1.06329L10.9462 4.72485H3.35116V5.50033H11.3811C11.3811 5.50033 11.3811 5.52432 11.3811 5.53231V6.3078C11.3811 6.73951 11.0267 7.09127 10.5918 7.09127H2.05445C1.61952 7.09127 1.25709 6.73951 1.25709 6.3078L1.26514 6.31578ZM13.8135 1.17522V6.70753C13.8135 7.3551 14.345 7.88275 14.9974 7.88275H24.316C24.9684 7.88275 25.5 7.3551 25.5 6.70753V1.17522C25.5 0.527649 24.9684 0 24.316 0H14.9974C14.345 0 13.8135 0.527649 13.8135 1.17522ZM24.7107 1.17522V6.70753C24.7107 6.93138 24.5335 7.09927 24.308 7.09927H14.9894C14.7639 7.09927 14.5867 6.92338 14.5867 6.70753V1.17522C14.5867 0.959361 14.7639 0.783474 14.9894 0.783474H24.308C24.5255 0.783474 24.7107 0.959361 24.7107 1.17522ZM20.0474 1.31113H19.2661V6.57162H20.0474V1.31113ZM18.8312 3.12591H18.0499V4.74883H18.8312V3.12591ZM21.2635 3.12591H20.4823V4.74883H21.2635V3.12591ZM7.50709 11.1925C7.50709 11.1046 7.57957 11.0247 7.67622 11.0247H8.81991C8.9085 11.0247 8.98905 11.0966 8.98905 11.1925V11.4324H7.51514V11.1925H7.50709ZM3.66527 11.1925C3.66527 11.1046 3.74581 11.0247 3.83441 11.0247H4.97809C5.06669 11.0247 5.14723 11.0966 5.14723 11.1925V11.4324H3.66527V11.1925ZM24.7107 14.3904H1.80477V13.0153C1.80477 12.5836 2.15915 12.2318 2.59407 12.2318H23.9133C24.3483 12.2318 24.7026 12.5836 24.7026 13.0153V14.3904H24.7107Z" fill="black"/>
</svg>
