<svg width="24" height="24" viewBox="0 0 24 24" fill="none" xmlns="http://www.w3.org/2000/svg">
<path d="M14.035 21.3266C14.035 22.8121 13.06 23.8945 11.7336 23.8945C10.7813 23.8945 9.87435 23.0884 9.87435 22.2363C9.87435 21.672 10.3278 21.2229 10.872 21.2229V20.1175C9.72697 20.1175 8.78602 21.0732 8.78602 22.2363C8.78602 23.7103 10.1578 25 11.7222 25C13.6495 25 15.112 23.4224 15.112 21.3381C15.112 18.6089 12.9239 16.398 10.2485 16.398H0V17.5035H10.2485C12.3344 17.5035 14.035 19.2308 14.035 21.3496V21.3266ZM15.1233 3.66191C15.1233 1.63519 13.5021 0 11.5182 0C10.0217 0 8.79735 1.24367 8.79735 2.7637C8.79735 3.92676 9.73831 4.88254 10.8833 4.88254V3.77706C10.3278 3.77706 9.88569 3.31644 9.88569 2.7637C9.88569 1.85398 10.6226 1.10548 11.5182 1.10548C12.9126 1.10548 14.0463 2.25702 14.0463 3.67342C14.0463 5.79226 12.3458 7.51958 10.2598 7.51958H0.0113371V8.62506H10.2598C12.9466 8.62506 15.1233 6.40258 15.1233 3.68494V3.66191ZM24 8.12989C24 6.10318 22.3788 4.46799 20.3949 4.46799C18.8984 4.46799 17.6741 5.71165 17.6741 7.23169C17.6741 8.39475 18.615 9.35053 19.76 9.35053V8.24505C19.2045 8.24505 18.7624 7.78443 18.7624 7.23169C18.7624 6.31046 19.4993 5.57347 20.3949 5.57347C21.7893 5.57347 22.923 6.72501 22.923 8.14141C22.923 10.2603 21.2225 11.9876 19.1365 11.9876H0.0113371V13.093H19.1365C21.8233 13.093 24 10.8706 24 8.15293V8.12989Z" fill="black"/>
</svg>
