<svg width="24" height="20" viewBox="0 0 24 20" fill="none" xmlns="http://www.w3.org/2000/svg">
<path d="M22.0754 8.94271H1.92464C0.865699 8.94271 0 9.81342 0 10.8785V17.9918C0 18.8237 0.672466 19.5 1.49952 19.5H2.2029C2.60483 19.5 2.9913 19.3367 3.27729 19.0491L4.16618 18.1395C4.30531 17.9918 4.49855 17.9141 4.69952 17.9141H19.3005C19.5014 17.9141 19.6947 17.9996 19.8338 18.1395L20.7227 19.0491C21.001 19.3367 21.3952 19.5 21.7971 19.5H22.5005C23.3275 19.5 24 18.8237 24 17.9918V10.8785C24 9.81342 23.1343 8.94271 22.0754 8.94271ZM23.2502 17.9918C23.2502 18.4039 22.9101 18.7459 22.5005 18.7459H21.7971C21.5961 18.7459 21.4029 18.6682 21.2638 18.5205L20.3749 17.6109C20.0966 17.3232 19.7024 17.16 19.3005 17.16H4.69952C4.29759 17.16 3.91111 17.3232 3.62512 17.6109L2.73623 18.5205C2.5971 18.6604 2.39613 18.7459 2.2029 18.7459H1.49952C1.08986 18.7459 0.749759 18.4039 0.749759 17.9918V10.8785C0.749759 10.2255 1.27536 9.69681 1.92464 9.69681H22.0754C22.7246 9.69681 23.2502 10.2255 23.2502 10.8785V17.9918ZM22.5391 8.1964V2.43576C22.5391 1.3707 21.6734 0.5 20.6145 0.5H3.3855C2.32657 0.5 1.46087 1.3707 1.46087 2.43576V8.1964H2.21063V2.43576C2.21063 1.78273 2.73623 1.25409 3.3855 1.25409H20.6145C21.2638 1.25409 21.7894 1.78273 21.7894 2.43576V8.1964H22.5391ZM9.90918 8.1653L10.6589 8.21972L10.6899 7.84656C10.7053 7.62889 10.744 7.40344 10.7981 7.17799C10.8986 6.75041 10.7826 6.29951 10.4889 5.97299C10.1874 5.64648 9.75459 5.491 9.31401 5.56096C7.90725 5.77864 6.4773 5.78642 5.08599 5.57651C4.62995 5.50655 4.21256 5.66203 3.91111 5.98854C3.60966 6.32283 3.49372 6.79705 3.60193 7.24018C3.64831 7.44231 3.68696 7.63666 3.70242 7.84656L3.73333 8.21972L4.48309 8.15753L4.45218 7.78437C4.42899 7.54337 4.39034 7.30237 4.33623 7.06137C4.28213 6.85147 4.33623 6.64935 4.46763 6.49386C4.5913 6.35393 4.77681 6.29173 4.97005 6.32283C6.44638 6.54051 7.94589 6.53273 9.42222 6.29951C9.61546 6.26841 9.80096 6.3306 9.93236 6.47831C10.0638 6.61825 10.1101 6.80482 10.0638 6.99918C10.0019 7.2635 9.95555 7.52782 9.9401 7.78437L9.90918 8.15753V8.1653ZM19.6638 8.1653L20.4135 8.21195L20.4367 7.83879C20.4522 7.62111 20.4831 7.40344 20.5372 7.17799C20.6377 6.75041 20.5217 6.29951 20.228 5.97299C19.9266 5.64648 19.486 5.491 19.0454 5.56096C17.6386 5.77864 16.2164 5.78642 14.8174 5.57651C14.3614 5.50655 13.944 5.66203 13.6425 5.98854C13.3411 6.32283 13.2251 6.79706 13.3333 7.24796C13.3874 7.44231 13.4106 7.64443 13.4338 7.84656L13.4647 8.21972L14.2145 8.15753L14.1836 7.78437C14.1604 7.54337 14.1217 7.30237 14.0676 7.06137C14.0135 6.85147 14.0676 6.64935 14.199 6.49386C14.3304 6.35393 14.5082 6.29173 14.7014 6.32283C16.1778 6.54051 17.6773 6.53273 19.1536 6.29951C19.3546 6.26841 19.5324 6.3306 19.6638 6.47831C19.7952 6.61825 19.8415 6.80483 19.7952 6.99141C19.7256 7.2635 19.687 7.52782 19.6715 7.78437L19.6483 8.15753L19.6638 8.1653ZM1.49952 15.5741H22.5005V14.82H1.49952V15.5741ZM1.49952 12.4333H22.5005V11.6792H1.49952V12.4333Z" fill="black"/>
</svg>
