<svg width="24" height="20" viewBox="0 0 24 20" fill="none" xmlns="http://www.w3.org/2000/svg">
<path d="M20.9025 6.77176C20.9025 5.84821 20.215 5.10097 19.3653 5.10097H4.62697C4.21757 5.10097 3.83135 5.27729 3.53782 5.58794C3.24429 5.89859 3.0898 6.32678 3.0898 6.77176C3.0898 7.69532 3.77728 8.44255 4.62697 8.44255H4.76601V19.4916H7.05246V8.44255H16.9321V19.4916H19.2185V8.44255H19.3576C19.767 8.44255 20.1532 8.26624 20.4467 7.95559C20.7403 7.64494 20.8948 7.21675 20.8948 6.77176H20.9025ZM2.50273 1.86014C2.50273 1.1129 1.93885 0.5 1.25137 0.5C0.563887 0.5 0 1.1129 0 1.86014V11.8849C0 12.7077 0.579335 13.3794 1.31316 13.4633V19.5H3.59961V13.4801H4.39524V12.6657H3.59961H1.46765C1.0737 12.6657 0.757 12.3131 0.757 11.8849V11.1209H4.39524V10.3065H2.51046V1.86014H2.50273ZM2.06244 13.4801H2.85034V18.6856H2.06244V13.4801ZM1.75346 10.3065H0.749274V1.86014C0.749274 1.55789 0.973285 1.31441 1.25137 1.31441C1.52945 1.31441 1.75346 1.55789 1.75346 1.86014V10.3065ZM9.37753 10.3065H7.43096V11.1209H9.37753C9.76376 11.1209 10.0805 11.4651 10.0805 11.8933C10.0805 12.1032 10.0032 12.2963 9.8719 12.439C9.74059 12.5817 9.56292 12.6573 9.37753 12.6573H7.70904H7.42324V13.4717H7.70904V19.4916H9.99549V13.3122C10.1423 13.2366 10.2813 13.1359 10.4049 13.0015C10.6752 12.6993 10.8297 12.3047 10.8297 11.8849C10.8297 11.0117 10.1809 10.2981 9.37753 10.2981V10.3065ZM9.25394 18.6856H8.46604V13.4801H9.25394V18.6856ZM22.7409 0.5C22.0534 0.5 21.4895 1.1129 21.4895 1.86014V10.3065H19.6048V11.1209H23.243V11.8849C23.243 12.3131 22.9263 12.6573 22.5323 12.6657H20.4004H19.6048V13.4801H20.4004V19.5H22.6868V13.4633C23.4207 13.3794 24 12.7077 24 11.8849V1.86014C24 1.1129 23.4361 0.5 22.7486 0.5H22.7409ZM21.9298 18.6856H21.1419V13.4801H21.9298V18.6856ZM23.243 10.3065H22.2388V1.86014C22.2388 1.55789 22.4628 1.31441 22.7409 1.31441C23.019 1.31441 23.243 1.55789 23.243 1.86014V10.3065ZM13.1548 11.8933C13.1548 12.3131 13.3016 12.7161 13.5797 13.0183C13.6955 13.1443 13.8346 13.245 13.9891 13.3206V19.5H16.2755V13.4801H16.5613V12.6657H16.2755H14.607C14.4216 12.6657 14.244 12.5901 14.1126 12.4474C13.9813 12.2963 13.9041 12.1032 13.9041 11.9017C13.9041 11.4735 14.2208 11.1293 14.607 11.1293H16.5536V10.3148H14.607C13.8037 10.3148 13.1548 11.0285 13.1548 11.9017V11.8933ZM14.7383 13.4801H15.5262V18.6856H14.7383V13.4801ZM6.30319 18.6856H5.51529V8.45095H6.30319V18.6856ZM18.477 18.6856H17.6891V8.45095H18.477V18.6856ZM19.9215 7.38467C19.7747 7.54419 19.5739 7.63654 19.3653 7.63654H4.62697C4.1944 7.63654 3.83907 7.25033 3.83907 6.78016C3.83907 6.55347 3.92404 6.33517 4.07081 6.17565C4.21757 6.01613 4.41841 5.92377 4.62697 5.92377H19.3653C19.7979 5.92377 20.1532 6.30999 20.1532 6.78016C20.1532 7.00685 20.0682 7.22514 19.9215 7.38467Z" fill="black"/>
</svg>
