<svg width="24" height="32" viewBox="0 0 24 32" fill="none" xmlns="http://www.w3.org/2000/svg">
<path d="M21.2929 28.3052H21.5488C22.8975 28.3052 24 27.187 24 25.8192V2.98599C24 1.6182 22.8975 0.5 21.5488 0.5H2.45119C1.10254 0.5 0 1.6182 0 2.98599V25.8192C0 27.187 1.10254 28.3052 2.45119 28.3052H2.70714V31.5H5.38474L7.32404 28.3052H16.6661L18.6054 31.5H21.283V28.3052H21.2929ZM22.0312 24.8108V3.98438C22.0312 3.1657 21.3716 2.49678 20.5644 2.49678H3.4356C2.62838 2.49678 1.96883 3.1657 1.96883 3.98438V24.8108C1.96883 25.6295 2.62838 26.2984 3.4356 26.2984H20.5546C21.3618 26.2984 22.0213 25.6295 22.0213 24.8108H22.0312ZM21.0763 24.8108C21.0763 25.1003 20.8499 25.33 20.5644 25.33H3.4356C3.15012 25.33 2.92371 25.1003 2.92371 24.8108V3.98438C2.92371 3.69485 3.15012 3.46522 3.4356 3.46522H20.5546C20.84 3.46522 21.0664 3.69485 21.0664 3.98438V24.8108H21.0763ZM11.5275 24.3615H12.4824V4.43365H11.5275V24.3615ZM14.1952 15.975H15.1501V12.8301H14.1952V15.975ZM8.84988 15.975H9.80476V12.8301H8.84988V15.975ZM4.863 30.5316H3.67186V28.3052H6.21165L4.863 30.5316ZM2.45119 27.3267C1.62428 27.3267 0.954881 26.6478 0.954881 25.8092V2.97601C0.954881 2.13736 1.62428 1.45845 2.45119 1.45845H21.5488C22.3757 1.45845 23.0451 2.13736 23.0451 2.97601V25.8092C23.0451 26.6478 22.3757 27.3267 21.5488 27.3267H2.45119ZM20.338 30.5316H19.1468L17.7982 28.3052H20.338V30.5316Z" fill="black"/>
</svg>
