<svg width="20" height="24" viewBox="0 0 20 24" fill="none" xmlns="http://www.w3.org/2000/svg">
<path d="M17.2004 4.8H14.8004C14.8004 2.148 12.6524 0 10.0004 0C7.34839 0 5.20039 2.148 5.20039 4.8H2.80039C1.48039 4.8 0.400391 5.88 0.400391 7.2V21.6C0.400391 22.92 1.48039 24 2.80039 24H17.2004C18.5204 24 19.6004 22.92 19.6004 21.6V7.2C19.6004 5.88 18.5204 4.8 17.2004 4.8ZM10.0004 2.4C11.3204 2.4 12.4004 3.48 12.4004 4.8H7.60039C7.60039 3.48 8.68039 2.4 10.0004 2.4ZM17.2004 21.6H2.80039V7.2H5.20039V9.6C5.20039 10.26 5.74039 10.8 6.40039 10.8C7.06039 10.8 7.60039 10.26 7.60039 9.6V7.2H12.4004V9.6C12.4004 10.26 12.9404 10.8 13.6004 10.8C14.2604 10.8 14.8004 10.26 14.8004 9.6V7.2H17.2004V21.6Z" fill="black"/>
</svg>
